<svg width="24" height="24" viewBox="0 0 24 24" fill="none" xmlns="http://www.w3.org/2000/svg">
<path d="M12.001 5.5C12.1562 5.49963 12.2646 5.54686 12.3594 5.6416C12.4541 5.73629 12.5007 5.84425 12.5 5.99805V11.5H18C18.1571 11.5 18.2656 11.5478 18.3594 11.6416C18.4531 11.7353 18.5004 11.8433 18.5 11.999C18.4996 12.1559 18.4517 12.2653 18.3574 12.3604C18.265 12.4534 18.1578 12.5007 18.002 12.5H12.5V18C12.5 18.1571 12.4522 18.2656 12.3584 18.3594C12.2647 18.4531 12.1567 18.5004 12.001 18.5C11.844 18.4996 11.7348 18.4513 11.6406 18.3574C11.5477 18.2646 11.5 18.1569 11.5 18V12.5H6C5.84307 12.5 5.73538 12.4523 5.64258 12.3594C5.54874 12.2652 5.50041 12.156 5.5 11.999C5.49963 11.844 5.54669 11.7363 5.64062 11.6426C5.7358 11.5477 5.84488 11.5 6 11.5H11.5V6C11.5 5.84307 11.5477 5.73538 11.6406 5.64258C11.7348 5.54874 11.844 5.50041 12.001 5.5Z" stroke="#1E7A60"/>
</svg>
