<svg width="14" height="14" viewBox="0 0 14 14" fill="none" xmlns="http://www.w3.org/2000/svg">
<g clip-path="url(#clip0_326_58371)">
<path d="M3.92138 13.8603C3.01628 13.8603 2.16858 13.4718 1.55678 12.8523C0.370278 11.6511 0.0398785 9.55462 1.70308 7.87112L8.52668 0.96212C9.21828 0.26212 10.0982 -0.00878046 10.9403 0.22012C11.7684 0.44412 12.446 1.13082 12.6679 1.96872C12.8933 2.82272 12.6266 3.71382 11.9357 4.41382L5.40958 11.0218C5.03718 11.3991 4.61578 11.6224 4.19298 11.6672C3.77368 11.712 3.37398 11.5762 3.09398 11.2927C2.58718 10.7775 2.51438 9.81082 3.35858 8.95682L7.94218 4.31582C8.13048 4.12542 8.43568 4.12542 8.62398 4.31582C8.81228 4.50622 8.81228 4.81562 8.62398 5.00602L4.03968 9.64772C3.64348 10.0481 3.60708 10.431 3.77578 10.6025C3.84998 10.6767 3.96198 10.711 4.09148 10.6963C4.28958 10.676 4.51568 10.5451 4.72778 10.3316L11.2539 3.72432C11.7019 3.27072 11.8734 2.73732 11.7369 2.22282C11.6688 1.97116 11.5367 1.74139 11.3536 1.55582C11.1705 1.37024 10.9425 1.23517 10.6918 1.16372C10.1836 1.02582 9.65578 1.20012 9.20778 1.65372L2.38418 8.56272C1.11298 9.85002 1.41748 11.3319 2.23788 12.1628C3.05898 12.9937 4.52128 13.3031 5.79318 12.0144L12.6168 5.10542C12.6613 5.06017 12.7143 5.02423 12.7729 4.9997C12.8314 4.97517 12.8942 4.96253 12.9577 4.96253C13.0211 4.96253 13.084 4.97517 13.1425 4.9997C13.201 5.02423 13.2541 5.06017 13.2986 5.10542C13.3892 5.19758 13.4399 5.32164 13.4399 5.45087C13.4399 5.5801 13.3892 5.70416 13.2986 5.79632L6.47498 12.7053C5.67068 13.5187 4.76978 13.8603 3.92138 13.8603Z" fill="#2A2A2A" fill-opacity="0.5"/>
</g>
<defs>
<clipPath id="clip0_326_58371">
<rect width="14" height="14" fill="white"/>
</clipPath>
</defs>
</svg>
