<svg width="24" height="24" viewBox="0 0 24 24" fill="none" xmlns="http://www.w3.org/2000/svg">
<path d="M12.8165 17.8255C12.8766 17.8923 12.9236 17.9708 12.9548 18.0567C12.986 18.1426 13.0007 18.234 12.9983 18.3259C12.9958 18.4177 12.9761 18.5082 12.9404 18.5921C12.9046 18.6759 12.8535 18.7516 12.7899 18.8147C12.7263 18.8778 12.6515 18.9272 12.5698 18.9599C12.488 18.9927 12.4009 19.0082 12.3135 19.0056C12.226 19.003 12.1399 18.9823 12.0601 18.9448C11.9802 18.9072 11.9082 18.8535 11.8481 18.7867L6.1867 12.4904C6.06978 12.3605 6.00464 12.1885 6.00464 12.0098C6.00464 11.831 6.06978 11.6591 6.1867 11.5292L11.8481 5.23217C11.9078 5.16392 11.9798 5.1088 12.0599 5.07003C12.1401 5.03125 12.2268 5.00959 12.3149 5.0063C12.4031 5.00301 12.491 5.01816 12.5736 5.05086C12.6562 5.08356 12.7317 5.13317 12.7959 5.1968C12.86 5.26043 12.9115 5.33682 12.9473 5.42152C12.9831 5.50622 13.0026 5.59756 13.0045 5.69022C13.0064 5.78287 12.9908 5.87501 12.9585 5.96127C12.9262 6.04753 12.878 6.1262 12.8165 6.1927L7.58673 12.0098L12.8165 17.8255Z" fill="black"/>
<path d="M19.8165 17.8255C19.8766 17.8923 19.9236 17.9708 19.9548 18.0567C19.986 18.1426 20.0007 18.234 19.9983 18.3259C19.9958 18.4177 19.9761 18.5082 19.9404 18.5921C19.9046 18.6759 19.8535 18.7516 19.7899 18.8147C19.7263 18.8778 19.6515 18.9272 19.5698 18.9599C19.488 18.9927 19.4009 19.0082 19.3135 19.0056C19.226 19.003 19.1399 18.9823 19.0601 18.9448C18.9802 18.9072 18.9082 18.8535 18.8481 18.7867L13.1867 12.4904C13.0698 12.3605 13.0046 12.1885 13.0046 12.0098C13.0046 11.831 13.0698 11.6591 13.1867 11.5292L18.8481 5.23217C18.9078 5.16392 18.9798 5.1088 19.0599 5.07003C19.1401 5.03125 19.2268 5.00959 19.3149 5.0063C19.4031 5.00301 19.491 5.01816 19.5736 5.05086C19.6562 5.08356 19.7317 5.13317 19.7959 5.1968C19.86 5.26043 19.9115 5.33682 19.9473 5.42152C19.9831 5.50622 20.0026 5.59756 20.0045 5.69022C20.0064 5.78287 19.9908 5.87501 19.9585 5.96127C19.9262 6.04753 19.878 6.1262 19.8165 6.1927L14.5867 12.0098L19.8165 17.8255Z" fill="black"/>
</svg>
