<svg width="24" height="24" viewBox="0 0 24 24" fill="none" xmlns="http://www.w3.org/2000/svg">
<path d="M7.192 13.616H8.26C8.36733 13.616 8.46733 13.5973 8.56 13.56C8.65333 13.5227 8.74333 13.4603 8.83 13.373L13.858 8.346C13.944 8.24733 14.0083 8.144 14.051 8.036C14.0937 7.928 14.1153 7.82067 14.116 7.714C14.1167 7.60733 14.094 7.50167 14.048 7.397C14.0033 7.293 13.94 7.19133 13.858 7.092L12.938 6.142C12.8527 6.056 12.7537 5.99167 12.641 5.949C12.5277 5.90633 12.416 5.885 12.306 5.885C12.1993 5.885 12.092 5.90633 11.984 5.949C11.876 5.99167 11.7723 6.056 11.673 6.142L6.627 11.17C6.54033 11.2573 6.47833 11.3473 6.441 11.44C6.40367 11.5333 6.385 11.634 6.385 11.742V12.809C6.385 13.041 6.46167 13.2337 6.615 13.387C6.76833 13.5403 6.96067 13.616 7.192 13.616ZM7.269 12.73V11.78L10.717 8.332L11.179 8.82L11.648 9.301L8.219 12.73H7.269ZM11.179 8.82L11.648 9.301L10.718 8.331L11.179 8.82ZM11.809 13.615H17.116C17.258 13.615 17.3767 13.567 17.472 13.471C17.568 13.3757 17.616 13.257 17.616 13.115C17.616 12.9723 17.568 12.8533 17.472 12.758C17.3767 12.6627 17.2577 12.615 17.115 12.615H12.81L11.809 13.615ZM6.078 17L4.374 18.704C4.12133 18.9567 3.82933 19.0147 3.498 18.878C3.16667 18.7413 3.00067 18.493 3 18.133V4.616C3 4.15533 3.15433 3.771 3.463 3.463C3.77167 3.155 4.156 3.00067 4.616 3H19.385C19.845 3 20.2293 3.15433 20.538 3.463C20.8467 3.77167 21.0007 4.156 21 4.616V15.385C21 15.845 20.846 16.2293 20.538 16.538C20.23 16.8467 19.8457 17.0007 19.385 17H6.078ZM5.651 16H19.386C19.5393 16 19.6803 15.936 19.809 15.808C19.9377 15.68 20.0017 15.539 20.001 15.385V4.615C20.001 4.46167 19.937 4.32067 19.809 4.192C19.681 4.06333 19.5397 3.99933 19.385 4H4.615C4.46167 4 4.32067 4.064 4.192 4.192C4.06333 4.32 3.99933 4.461 4 4.615V17.645L5.651 16Z" fill="#737373"/>
</svg>
