<svg width="24" height="24" viewBox="0 0 24 24" fill="none" xmlns="http://www.w3.org/2000/svg">
<path d="M10.6154 5.71429H13.3846C13.3846 5.35435 13.2387 5.00915 12.9791 4.75464C12.7194 4.50013 12.3672 4.35714 12 4.35714C11.6328 4.35714 11.2806 4.50013 11.0209 4.75464C10.7613 5.00915 10.6154 5.35435 10.6154 5.71429ZM9.23077 5.71429C9.23077 4.99441 9.52253 4.30402 10.0419 3.795C10.5612 3.28597 11.2656 3 12 3C12.7344 3 13.4388 3.28597 13.9581 3.795C14.4775 4.30402 14.7692 4.99441 14.7692 5.71429H20.3077C20.4913 5.71429 20.6674 5.78578 20.7972 5.91303C20.9271 6.04029 21 6.21289 21 6.39286C21 6.57283 20.9271 6.74542 20.7972 6.87268C20.6674 6.99994 20.4913 7.07143 20.3077 7.07143H19.5268L17.8583 19.0659C17.7451 19.8787 17.3354 20.6238 16.7048 21.1633C16.0742 21.7027 15.2656 22 14.4286 22H9.57138C8.73441 22 7.92578 21.7027 7.29522 21.1633C6.66465 20.6238 6.25485 19.8787 6.14169 19.0659L4.47323 7.07143H3.69231C3.5087 7.07143 3.33261 6.99994 3.20277 6.87268C3.07294 6.74542 3 6.57283 3 6.39286C3 6.21289 3.07294 6.04029 3.20277 5.91303C3.33261 5.78578 3.5087 5.71429 3.69231 5.71429H9.23077ZM10.6154 10.4643C10.6154 10.2843 10.5424 10.1117 10.4126 9.98446C10.2828 9.85721 10.1067 9.78571 9.92308 9.78571C9.73947 9.78571 9.56337 9.85721 9.43354 9.98446C9.30371 10.1117 9.23077 10.2843 9.23077 10.4643V17.25C9.23077 17.43 9.30371 17.6026 9.43354 17.7298C9.56337 17.8571 9.73947 17.9286 9.92308 17.9286C10.1067 17.9286 10.2828 17.8571 10.4126 17.7298C10.5424 17.6026 10.6154 17.43 10.6154 17.25V10.4643ZM14.0769 9.78571C14.2605 9.78571 14.4366 9.85721 14.5665 9.98446C14.6963 10.1117 14.7692 10.2843 14.7692 10.4643V17.25C14.7692 17.43 14.6963 17.6026 14.5665 17.7298C14.4366 17.8571 14.2605 17.9286 14.0769 17.9286C13.8933 17.9286 13.7172 17.8571 13.5874 17.7298C13.4576 17.6026 13.3846 17.43 13.3846 17.25V10.4643C13.3846 10.2843 13.4576 10.1117 13.5874 9.98446C13.7172 9.85721 13.8933 9.78571 14.0769 9.78571ZM7.51385 18.8826C7.5818 19.3702 7.82766 19.8172 8.20594 20.1408C8.58421 20.4644 9.06929 20.6428 9.57138 20.6429H14.4286C14.931 20.6431 15.4164 20.4649 15.7949 20.1413C16.1735 19.8176 16.4196 19.3705 16.4875 18.8826L18.1297 7.07143H5.87031L7.51385 18.8826Z" fill="#737373"/>
</svg>
