<svg width="22" height="18" viewBox="0 0 22 18" fill="none" xmlns="http://www.w3.org/2000/svg">
<path d="M16.9431 9.75V11.2246C16.9431 13.3579 16.9431 14.4245 16.2804 15.0873C15.6176 15.75 14.551 15.75 12.4177 15.75H8.98417C6.85086 15.75 5.78421 15.75 5.12147 15.0873C4.45874 14.4245 4.45874 13.3579 4.45874 11.2246V6.77543C4.45874 4.64212 4.45874 3.57547 5.12147 2.91273C5.78421 2.25 6.85086 2.25 8.98417 2.25H10.7009" stroke="#B3C0DD" stroke-linecap="round"/>
<path d="M16.0514 2.25L16.0514 6.75" stroke="#B3C0DD" stroke-linecap="round"/>
<path d="M18.7266 4.5L13.3761 4.5" stroke="#B3C0DD" stroke-linecap="round"/>
<path d="M8.02563 9.75L13.3761 9.75" stroke="#B3C0DD" stroke-linecap="round"/>
<path d="M8.02563 6.75L11.5926 6.75" stroke="#B3C0DD" stroke-linecap="round"/>
<path d="M8.02563 12.75L11.5926 12.75" stroke="#B3C0DD" stroke-linecap="round"/>
</svg>
