<svg width="24" height="24" viewBox="0 0 24 24" fill="none" xmlns="http://www.w3.org/2000/svg">
<path d="M12.5769 4.83789H6.6811C6.23434 4.83789 5.80588 5.01538 5.48997 5.33131C5.17406 5.64724 4.99658 6.07574 4.99658 6.52253V18.315C4.99658 18.7618 5.17406 19.1903 5.48997 19.5062C5.80588 19.8221 6.23434 19.9996 6.6811 19.9996H18.4727C18.9195 19.9996 19.348 19.8221 19.6639 19.5062C19.9798 19.1903 20.1573 18.7618 20.1573 18.315V12.4188" stroke="#737373" stroke-width="1.5" stroke-linecap="round" stroke-linejoin="round"/>
<path d="M17.9462 4.52335C18.2812 4.18825 18.7357 4 19.2096 4C19.6834 4 20.1379 4.18825 20.4729 4.52335C20.808 4.85845 20.9963 5.31293 20.9963 5.78683C20.9963 6.26073 20.808 6.71521 20.4729 7.05031L12.8817 14.643C12.6817 14.8428 12.4346 14.9891 12.1632 15.0683L9.74339 15.7759C9.67092 15.797 9.59409 15.7983 9.52096 15.7796C9.44783 15.7608 9.38107 15.7228 9.32769 15.6694C9.27431 15.616 9.23626 15.5492 9.21752 15.4761C9.19879 15.403 9.20005 15.3261 9.22119 15.2537L9.92869 12.8337C10.0083 12.5625 10.1549 12.3157 10.3549 12.116L17.9462 4.52335Z" stroke="#737373" stroke-width="1.5" stroke-linecap="round" stroke-linejoin="round"/>
</svg>
