<svg width="26" height="26" viewBox="0 0 26 26" fill="none" xmlns="http://www.w3.org/2000/svg">
<path d="M15.5706 20.5414L17.2096 22.1804L20.4877 18.9023" stroke="#00AC4F" stroke-width="1.61747" stroke-linecap="round" stroke-linejoin="round"/>
<path d="M13.1124 11.7209C13.0045 11.7101 12.8752 11.7101 12.7565 11.7209C10.1902 11.6346 8.15214 9.53191 8.15214 6.94396C8.14136 4.30209 10.2872 2.15625 12.9291 2.15625C15.5709 2.15625 17.7168 4.30209 17.7168 6.94396C17.7168 9.53191 15.668 11.6346 13.1124 11.7209Z" stroke="#00AC4F" stroke-width="1.61747" stroke-linecap="round" stroke-linejoin="round"/>
<path d="M12.9286 23.5168C10.966 23.5168 9.0143 23.0208 7.52623 22.0287C4.91671 20.2818 4.91671 17.4351 7.52623 15.699C10.4916 13.7149 15.3548 13.7149 18.3201 15.699" stroke="#00AC4F" stroke-width="1.61747" stroke-linecap="round" stroke-linejoin="round"/>
</svg>
