<svg width="21" height="18" viewBox="0 0 21 18" fill="none" xmlns="http://www.w3.org/2000/svg">
<path d="M10.1655 1.75C14.5935 1.75 18.2905 4.94043 18.2905 9C18.2905 13.0596 14.5935 16.25 10.1655 16.25C5.7377 16.2498 2.0415 13.0595 2.0415 9C2.0415 4.94054 5.7377 1.75017 10.1655 1.75Z" stroke="#B3C0DD" stroke-linecap="round"/>
<path d="M6.92698 11.6468C7.29547 11.9293 7.79252 12.1416 8.34772 12.2835C8.90777 12.4266 9.53412 12.5 10.1658 12.5C10.7976 12.5 11.4239 12.4266 11.9839 12.2835C12.5392 12.1416 13.0362 11.9293 13.4047 11.6468" stroke="#B3C0DD" stroke-linecap="round"/>
<ellipse cx="7.62438" cy="7.5" rx="0.847154" ry="0.75" fill="#B3C0DD" stroke="#B3C0DD" stroke-width="0.754239" stroke-linecap="round"/>
<ellipse cx="12.7073" cy="7.5" rx="0.847154" ry="0.75" fill="#B3C0DD" stroke="#B3C0DD" stroke-width="0.754239" stroke-linecap="round"/>
</svg>
