<svg width="22" height="18" viewBox="0 0 22 18" fill="none" xmlns="http://www.w3.org/2000/svg">
<path d="M7.57983 11.625V11.125H8.07983V11.625H7.57983ZM3.44296 15.7577C3.23163 15.9354 2.91622 15.9082 2.73848 15.6968C2.56073 15.4855 2.58796 15.1701 2.7993 14.9923L3.12113 15.375L3.44296 15.7577ZM7.57983 15H7.07983V11.625H7.57983H8.07983V15H7.57983ZM7.57983 11.625V12.125H3.567V11.625V11.125H7.57983V11.625ZM7.57983 11.625L7.90167 12.0077L3.44296 15.7577L3.12113 15.375L2.7993 14.9923L7.258 11.2423L7.57983 11.625Z" fill="#B3C0DD"/>
<path d="M10.7009 16.125H16.1555C17.8217 16.125 19.1724 14.7743 19.1724 13.108V4.89196C19.1724 3.22574 17.8217 1.875 16.1555 1.875H5.24633C3.58011 1.875 2.22937 3.22574 2.22937 4.89196V9" stroke="#B3C0DD"/>
<path d="M7.57983 6.375L10.7335 10.2061C11.2225 10.8001 12.0801 10.931 12.7239 10.5098L14.667 9.23879C15.2241 8.87437 15.9543 8.91823 16.4637 9.34673L19.1725 11.6249" stroke="#B3C0DD"/>
<ellipse cx="14.7137" cy="5.625" rx="1.33761" ry="1.125" fill="#B3C0DD"/>
</svg>
