<svg width="24" height="24" viewBox="0 0 24 24" fill="none" xmlns="http://www.w3.org/2000/svg">
<path fill-rule="evenodd" clip-rule="evenodd" d="M8.14551 22.125C9.6042 22.125 11.0031 21.5455 12.0346 20.5141C13.066 19.4826 13.6455 18.0837 13.6455 16.625C13.6455 15.1663 13.066 13.7674 12.0346 12.7359C11.0031 11.7045 9.6042 11.125 8.14551 11.125C6.68682 11.125 5.28787 11.7045 4.25642 12.7359C3.22497 13.7674 2.64551 15.1663 2.64551 16.625C2.64551 18.0837 3.22497 19.4826 4.25642 20.5141C5.28787 21.5455 6.68682 22.125 8.14551 22.125ZM8.14551 13.132C8.27812 13.132 8.40529 13.1847 8.49906 13.2784C8.59283 13.3722 8.64551 13.4994 8.64551 13.632V16.125H11.1385C11.2711 16.125 11.3983 16.1777 11.4921 16.2714C11.5858 16.3652 11.6385 16.4924 11.6385 16.625C11.6385 16.7576 11.5858 16.8848 11.4921 16.9786C11.3983 17.0723 11.2711 17.125 11.1385 17.125H8.64551V19.618C8.64551 19.7506 8.59283 19.8778 8.49906 19.9716C8.40529 20.0653 8.27812 20.118 8.14551 20.118C8.0129 20.118 7.88572 20.0653 7.79195 19.9716C7.69819 19.8778 7.64551 19.7506 7.64551 19.618V17.125H5.15251C5.0199 17.125 4.89272 17.0723 4.79895 16.9786C4.70519 16.8848 4.65251 16.7576 4.65251 16.625C4.65251 16.4924 4.70519 16.3652 4.79895 16.2714C4.89272 16.1777 5.0199 16.125 5.15251 16.125H7.64551V13.632C7.64551 13.4994 7.69819 13.3722 7.79195 13.2784C7.88572 13.1847 8.0129 13.132 8.14551 13.132Z" fill="black"/>
<path d="M5.9375 9.375V5.375C5.9375 4.44674 6.30625 3.5565 6.96263 2.90013C7.619 2.24375 8.50924 1.875 9.4375 1.875H11.8855C12.3846 1.87496 12.878 1.98168 13.3325 2.188M13.3325 2.188C13.7148 2.3618 14.0637 2.60298 14.3605 2.9L20.3285 8.87C20.6285 9.17 20.8685 9.516 21.0395 9.895M13.3325 2.188L13.3335 7.895C13.3335 8.42543 13.5442 8.93414 13.9193 9.30921C14.2944 9.68429 14.8031 9.895 15.3335 9.895H21.0395M15.3955 20.375H17.8535C18.7818 20.375 19.672 20.0063 20.3284 19.3499C20.9848 18.6935 21.3535 17.8033 21.3535 16.875V11.345C21.3535 10.84 21.2445 10.346 21.0395 9.895" stroke="black" stroke-width="1.5" stroke-linecap="round" stroke-linejoin="round"/>
</svg>
