<svg width="28" height="28" viewBox="0 0 28 28" fill="none" xmlns="http://www.w3.org/2000/svg">
<path d="M10.3716 12.3065C10.2584 12.2952 10.1225 12.2952 9.99795 12.3065C7.30324 12.216 5.16333 10.0081 5.16333 7.29077C5.16333 4.51681 7.40514 2.26367 10.1904 2.26367C12.9644 2.26367 15.2175 4.51681 15.2175 7.29077C15.2062 10.0081 13.0663 12.216 10.3716 12.3065Z" stroke="#00AC4F" stroke-width="1.69834" stroke-linecap="round" stroke-linejoin="round"/>
<path d="M18.5798 4.52734C20.7763 4.52734 22.5426 6.30494 22.5426 8.49015C22.5426 10.6301 20.8443 12.3737 18.727 12.4529C18.6364 12.4416 18.5345 12.4416 18.4326 12.4529" stroke="#00AC4F" stroke-width="1.69834" stroke-linecap="round" stroke-linejoin="round"/>
<path d="M4.71051 16.4837C1.97052 18.3179 1.97052 21.307 4.71051 23.1299C7.82414 25.2132 12.9305 25.2132 16.0441 23.1299C18.7841 21.2956 18.7841 18.3066 16.0441 16.4837C12.9418 14.4117 7.83546 14.4117 4.71051 16.4837Z" stroke="#00AC4F" stroke-width="1.69834" stroke-linecap="round" stroke-linejoin="round"/>
<path d="M20.7651 22.643C21.5803 22.4731 22.3503 22.1448 22.9843 21.6579C24.7506 20.3332 24.7506 18.148 22.9843 16.8233C22.3616 16.3478 21.603 16.0308 20.7991 15.8496" stroke="#00AC4F" stroke-width="1.69834" stroke-linecap="round" stroke-linejoin="round"/>
</svg>
