<svg width="223" height="223" viewBox="0 0 223 223" fill="none" xmlns="http://www.w3.org/2000/svg">
<g opacity="0.05">
<path d="M185.833 120.792C185.833 167.25 153.313 190.479 114.659 203.952C112.635 204.638 110.437 204.605 108.434 203.859C69.6876 190.479 37.1667 167.25 37.1667 120.792V55.7499C37.1667 53.2856 38.1457 50.9223 39.8882 49.1797C41.6307 47.4372 43.9941 46.4583 46.4584 46.4583C65.0417 46.4583 88.2709 35.3083 104.438 21.1849C106.407 19.5031 108.911 18.5791 111.5 18.5791C114.089 18.5791 116.593 19.5031 118.562 21.1849C134.822 35.4012 157.958 46.4583 176.542 46.4583C179.006 46.4583 181.369 47.4372 183.112 49.1797C184.854 50.9223 185.833 53.2856 185.833 55.7499V120.792Z" stroke="black" stroke-width="22" stroke-linecap="round" stroke-linejoin="round"/>
</g>
</svg>
