<svg width="22" height="18" viewBox="0 0 22 18" fill="none" xmlns="http://www.w3.org/2000/svg">
<path fill-rule="evenodd" clip-rule="evenodd" d="M7.07502 1.5H14.3267C15.1167 1.5 15.798 1.5 16.3438 1.5615C16.9279 1.6275 17.4888 1.77675 17.9427 2.15925C18.3975 2.54175 18.5749 3.01275 18.6534 3.504C18.7265 3.963 18.7265 4.536 18.7265 5.2005V5.9625C18.7265 6.16141 18.6326 6.35218 18.4653 6.49283C18.2981 6.63348 18.0713 6.7125 17.8348 6.7125C17.5983 6.7125 17.3714 6.63348 17.2042 6.49283C17.037 6.35218 16.943 6.16141 16.943 5.9625V5.25C16.943 4.52175 16.9412 4.05075 16.886 3.70425C16.8333 3.37875 16.7495 3.27675 16.6817 3.21975C16.614 3.16275 16.4927 3.09225 16.1057 3.048C15.6946 3.0015 15.1337 3 14.2678 3H11.5926V15.75C11.5926 15.9489 11.4986 16.1397 11.3314 16.2803C11.1642 16.421 10.9373 16.5 10.7008 16.5C10.4643 16.5 10.2375 16.421 10.0703 16.2803C9.90305 16.1397 9.8091 15.9489 9.8091 15.75V3H7.13387C6.26799 3 5.70798 3.0015 5.296 3.048C4.90898 3.09225 4.7877 3.16275 4.71993 3.21975C4.65216 3.27675 4.56834 3.37875 4.51572 3.70425C4.46044 4.05 4.45865 4.52175 4.45865 5.25V5.9625C4.45865 6.16141 4.3647 6.35218 4.19747 6.49283C4.03023 6.63348 3.80342 6.7125 3.56691 6.7125C3.33041 6.7125 3.10359 6.63348 2.93636 6.49283C2.76912 6.35218 2.67517 6.16141 2.67517 5.9625V5.2005C2.67517 4.536 2.67517 3.963 2.74829 3.504C2.82677 3.01275 3.00422 2.541 3.45901 2.15925C3.9138 1.77675 4.47381 1.6275 5.0579 1.5615C5.60365 1.5 6.28494 1.5 7.07502 1.5Z" fill="#B3C0DD"/>
<path d="M6.24219 15.75H15.1596" stroke="#B3C0DD" stroke-width="1.5" stroke-linecap="round" stroke-linejoin="round"/>
</svg>
