<svg width="16" height="16" viewBox="0 0 16 16" fill="none" xmlns="http://www.w3.org/2000/svg">
<path fill-rule="evenodd" clip-rule="evenodd" d="M13.071 15.5191L8 10.4481L2.92896 15.5191C2.60838 15.8397 2.20036 16 1.70492 16C1.20947 16 0.801456 15.8397 0.480874 15.5191C0.160291 15.1985 0 14.7905 0 14.2951C0 13.7996 0.160291 13.3916 0.480874 13.071L5.55191 8L0.480874 2.92896C0.160291 2.60838 0 2.20036 0 1.70492C0 1.20947 0.160291 0.801456 0.480874 0.480874C0.801456 0.160291 1.20947 0 1.70492 0C2.20036 0 2.60838 0.160291 2.92896 0.480874L8 5.55191L13.071 0.480874C13.3916 0.160291 13.7996 0 14.2951 0C14.7905 0 15.1985 0.160291 15.5191 0.480874C15.8397 0.801456 16 1.20947 16 1.70492C16 2.20036 15.8397 2.60838 15.5191 2.92896L10.4481 8L15.5191 13.071C15.8397 13.3916 16 13.7996 16 14.2951C16 14.7905 15.8397 15.1985 15.5191 15.5191C15.1985 15.8397 14.7905 16 14.2951 16C13.7996 16 13.3916 15.8397 13.071 15.5191Z" fill="#1E7A60"/>
</svg>
