<svg width="18" height="17" viewBox="0 0 18 17" fill="none" xmlns="http://www.w3.org/2000/svg">
<g clip-path="url(#clip0_471_300)">
<path d="M8.16 9.12324C8.16 9.33439 8.24882 9.5369 8.40691 9.68621C8.565 9.83552 8.77942 9.9194 9.003 9.9194C9.22658 9.9194 9.441 9.83552 9.59909 9.68621C9.75718 9.5369 9.846 9.33439 9.846 9.12324V5.04324C9.846 4.83208 9.75718 4.62957 9.59909 4.48026C9.441 4.33095 9.22658 4.24707 9.003 4.24707C8.77942 4.24707 8.565 4.33095 8.40691 4.48026C8.24882 4.62957 8.16 4.83208 8.16 5.04324V9.12324ZM9 11.6874C8.70163 11.6874 8.41548 11.7993 8.2045 11.9986C7.99353 12.1979 7.875 12.4681 7.875 12.7499C7.875 13.0317 7.99353 13.3019 8.2045 13.5012C8.41548 13.7005 8.70163 13.8124 9 13.8124C9.29837 13.8124 9.58452 13.7005 9.7955 13.5012C10.0065 13.3019 10.125 13.0317 10.125 12.7499C10.125 12.4681 10.0065 12.1979 9.7955 11.9986C9.58452 11.7993 9.29837 11.6874 9 11.6874Z" fill="white"/>
<path fill-rule="evenodd" clip-rule="evenodd" d="M0.365991 12.3679L6.00599 1.75703C7.24649 -0.580469 10.746 -0.580469 11.976 1.75703L17.616 12.3679C18.7455 14.4929 17.1255 17.0004 14.631 17.0004H3.33599C0.830991 17.0004 -0.774009 14.4929 0.350991 12.3679H0.365991ZM1.70699 13.0039L7.34699 2.39311C7.49907 2.10248 7.73418 1.85781 8.02575 1.68673C8.31732 1.51566 8.65374 1.425 8.99699 1.425C9.34025 1.425 9.67666 1.51566 9.96823 1.68673C10.2598 1.85781 10.4949 2.10248 10.647 2.39311L16.287 13.0039C16.9245 14.2024 15.999 15.5823 14.637 15.5823H3.34199C1.98149 15.5823 1.06199 14.1996 1.69199 13.0039H1.70699Z" fill="white"/>
</g>
<defs>
<clipPath id="clip0_471_300">
<rect width="18" height="17" fill="white"/>
</clipPath>
</defs>
</svg>
