<svg width="24" height="24" viewBox="0 0 24 24" fill="none" xmlns="http://www.w3.org/2000/svg">
<path fill-rule="evenodd" clip-rule="evenodd" d="M17.071 19.5191L12 14.4481L6.92896 19.5191C6.60838 19.8397 6.20036 20 5.70492 20C5.20947 20 4.80146 19.8397 4.48087 19.5191C4.16029 19.1985 4 18.7905 4 18.2951C4 17.7996 4.16029 17.3916 4.48087 17.071L9.55191 12L4.48087 6.92896C4.16029 6.60838 4 6.20036 4 5.70492C4 5.20947 4.16029 4.80146 4.48087 4.48087C4.80146 4.16029 5.20947 4 5.70492 4C6.20036 4 6.60838 4.16029 6.92896 4.48087L12 9.55191L17.071 4.48087C17.3916 4.16029 17.7996 4 18.2951 4C18.7905 4 19.1985 4.16029 19.5191 4.48087C19.8397 4.80146 20 5.20947 20 5.70492C20 6.20036 19.8397 6.60838 19.5191 6.92896L14.4481 12L19.5191 17.071C19.8397 17.3916 20 17.7996 20 18.2951C20 18.7905 19.8397 19.1985 19.5191 19.5191C19.1985 19.8397 18.7905 20 18.2951 20C17.7996 20 17.3916 19.8397 17.071 19.5191Z" fill="#1E7A60"/>
</svg>
